<svg xmlns="http://www.w3.org/2000/svg" viewBox="0 0 58.4 46.33"><defs><style>.cls-1,.cls-2{fill:#fff;}.cls-1{stroke:#000;stroke-width:0.5px;}</style></defs><title>アセット 1</title><g id="レイヤー_2" data-name="レイヤー 2"><g id="レイヤー_1-2" data-name="レイヤー 1"><ellipse class="cls-1" cx="13.07" cy="15.22" rx="12.82" ry="13.59"/><ellipse class="cls-1" cx="45.27" cy="13.6" rx="12.88" ry="13.35"/><ellipse cx="6.46" cy="15.8" rx="4.28" ry="4.39"/><ellipse cx="38.57" cy="14.55" rx="4.28" ry="4.39"/><ellipse class="cls-2" cx="8.7" cy="17.11" rx="1.04" ry="1.05"/><ellipse class="cls-2" cx="40.69" cy="15.76" rx="0.95" ry="1.03" transform="translate(-0.11 0.29) rotate(-0.41)"/><path class="cls-1" d="M35.46,38.3c0,2.53.35,5.11-.31,6.53a2.84,2.84,0,0,1-2.45,1.25,1.72,1.72,0,0,1-1.87-1c-.65-1.43-.83-4.25-.83-6.75,0-2.81-.06-5.42.74-6.78.42-.72,1.44-.53,2-.53s1.57,0,2,.78C35.48,33.12,35.46,35.51,35.46,38.3Z"/><path class="cls-1" d="M30,38.45c0,2.42-.24,5.13-.87,6.47-.43.91-1.13.83-1.71.83s-1.84.11-2.27-.81c-.63-1.34-.31-4.14-.31-6.55s.1-5.31.73-6.65c.43-.91,1.27-.7,1.85-.7s1.58-.21,2,.71C30,33.09,30,36,30,38.45Z"/><path class="cls-1" d="M40,35c-.84,2.23-1.59,2.71-4.15,2.38-1.74-.23-3.65-2.25-5.87-2.25-2.53,0-3.17.87-5,1.46-2.29.74-4.58.82-5.22-1.49C18.64,30.78,24.26,27,30,27S41.43,31.27,40,35Z"/><ellipse cx="29.49" cy="26.64" rx="5.45" ry="3.68"/></g></g></svg>